<svg id="Layer_1" data-name="Layer 1" xmlns="http://www.w3.org/2000/svg" viewBox="0 0 600 400"><defs><style>.cls-1{fill:#e4dcd1;}.cls-2{opacity:0.3;}.cls-3{fill:#754c24;}</style></defs><title>Artboard 1</title><rect class="cls-1" x="-21" y="-20" width="661" height="473"/><g class="cls-2"><path class="cls-3" d="M402.68,24A15.15,15.15,0,0,0,401,25.91c-.39.84-1.38,3.48-3,7.92a66,66,0,0,0-2.5,7.49q0,.6,2.45,9.61,2.39,8.74,2.91,10.33a5.36,5.36,0,0,0,1,1.64,4.53,4.53,0,0,1,.8,1.09,7.58,7.58,0,0,0-1.36,0H400a12.71,12.71,0,0,1-3.64-.38,5.89,5.89,0,0,0,.53-1.67c0-.27-.57-2.38-1.72-6.31s-1.82-6.06-2.17-6.83h-.08a.24.24,0,0,0-.21.16c-.44.95-1.28,3.16-2.54,6.62a39.39,39.39,0,0,0-2,6.28,7.9,7.9,0,0,0,.45,1.75,4.72,4.72,0,0,1-.73,0c-.36,0-.89,0-1.6,0s-1.25-.06-1.6-.06q.94-.11,1.5-1.53t3.17-9q2.79-8,2.79-8.31,0-.77-3.9-13.55c-.32-1.27-.67-2.54-1-3.82A8.61,8.61,0,0,0,385.67,24a18.56,18.56,0,0,1,3.36-.44q-.16,0,2.67.6c-.47.33-.18,4,.86,7.54A60.2,60.2,0,0,0,394.61,38a22.79,22.79,0,0,0,1.18-2.51q.49-1.26,1.85-5.08a36.24,36.24,0,0,0,1.51-4.86c0-.29-.32-.77-1-1.42a7,7,0,0,1,2.46-.55A12.12,12.12,0,0,1,402.68,24Z"/><path class="cls-3" d="M410.75,63.72a6.51,6.51,0,0,1-1.23.1c-.38,0-2.17-.16-5.37-.49.27-.33.68-.85,1.23-1.58v-.88c0-.47,0-1.19-.06-2.15s-.06-1.69-.06-2.16.05-1.17.14-2.08a20.6,20.6,0,0,0,.15-2.07V27.71a8.86,8.86,0,0,0-.37-2.29c-.3-1.06-.65-1.6-1-1.64a42.76,42.76,0,0,1,4.59-.49,5.2,5.2,0,0,1,1.72.44,6.63,6.63,0,0,1-.74,1.25,2.49,2.49,0,0,0-.49,1.37V59.07a10.37,10.37,0,0,0,.29,2.9A8.81,8.81,0,0,1,410.75,63.72Z"/><path class="cls-3" d="M419.07,63.72a6.51,6.51,0,0,1-1.23.1c-.39,0-2.17-.16-5.37-.49.27-.33.68-.85,1.23-1.58v-.88c0-.47,0-1.19-.06-2.15s-.07-1.69-.07-2.16a20.75,20.75,0,0,1,.15-2.08c.09-.91.14-1.6.14-2.07V27.71a8.45,8.45,0,0,0-.37-2.29c-.3-1.06-.64-1.6-1-1.64a42.76,42.76,0,0,1,4.59-.49,5.26,5.26,0,0,1,1.72.44A7.29,7.29,0,0,1,418,25a2.42,2.42,0,0,0-.49,1.37V59.07a10,10,0,0,0,.29,2.9A9.73,9.73,0,0,1,419.07,63.72Z"/></g><g class="cls-2"><path class="cls-3" d="M268.14,199.3a6.46,6.46,0,0,1,.11,1.23c0,.38-.17,2.17-.49,5.37-.33-.28-.86-.68-1.59-1.23h-.87c-.48,0-1.19,0-2.16.06s-1.68.06-2.16.06-1.16,0-2.07-.14a20.11,20.11,0,0,0-2.08-.14H232.14a8.87,8.87,0,0,0-2.3.36c-1.05.3-1.6.65-1.64,1a45.71,45.71,0,0,1-.49-4.59,5.47,5.47,0,0,1,.44-1.72,6.63,6.63,0,0,1,1.25.74,2.49,2.49,0,0,0,1.37.49h32.72a10.32,10.32,0,0,0,2.9-.29A9.13,9.13,0,0,1,268.14,199.3Z"/><path class="cls-3" d="M228.42,180.25a15.92,15.92,0,0,0,1.91,1.68q1.26.57,7.92,3a66,66,0,0,0,7.49,2.5q.6,0,9.61-2.46,8.75-2.37,10.33-2.91a5.32,5.32,0,0,0,1.64-1,4.53,4.53,0,0,1,1.09-.8,7.47,7.47,0,0,0,0,1.35v1.31a12.79,12.79,0,0,1-.38,3.65,5.48,5.48,0,0,0-1.67-.53q-.41,0-6.31,1.72a71.12,71.12,0,0,0-6.83,2.17V190c0,.08.06.15.17.21q1.43.64,6.61,2.54a40.3,40.3,0,0,0,6.28,2,7.76,7.76,0,0,0,1.75-.45,3.84,3.84,0,0,1,.05.74c0,.36,0,.89-.05,1.6s-.06,1.24-.06,1.6q-.11-.94-1.53-1.5t-9-3.17c-5.32-1.86-8.08-2.79-8.3-2.79q-.76,0-13.55,3.89c-1.28.33-2.55.67-3.83,1a8.77,8.77,0,0,0-3.33,1.55,18.35,18.35,0,0,1-.44-3.36c0,.11.2-.78.61-2.66a1.58,1.58,0,0,0,1.36.7,41,41,0,0,0,6.17-1.56,63.44,63.44,0,0,0,6.29-2.05,22.77,22.77,0,0,0-2.52-1.19c-.83-.33-2.53-.94-5.08-1.84a37.25,37.25,0,0,0-4.86-1.52c-.29,0-.76.33-1.42,1a7.27,7.27,0,0,1-.55-2.46A11.92,11.92,0,0,1,228.42,180.25Z"/></g><g class="cls-2"><path class="cls-3" d="M251.89,108.67a15.41,15.41,0,0,0,.93,2.37q.85,1.08,5.67,6.29A66.72,66.72,0,0,0,264,123c.35.18,3.58.92,9.67,2.22q8.85,1.89,10.51,2.14a5.06,5.06,0,0,0,1.92-.14,5.13,5.13,0,0,1,1.33-.21,8.72,8.72,0,0,0-.62,1.21l-.6,1.16a12.57,12.57,0,0,1-2,3.07,5.4,5.4,0,0,0-1.24-1.24q-.36-.19-6.39-1.36a68.93,68.93,0,0,0-7.07-1.2l0,.07a.25.25,0,0,0,.06.26q1,1.23,4.71,5.29a40.44,40.44,0,0,0,4.66,4.66,7.79,7.79,0,0,0,1.76.4,3.51,3.51,0,0,1-.29.68c-.16.32-.42.78-.78,1.4s-.62,1.08-.78,1.39a2,2,0,0,0-.67-2q-1-1.14-6.56-6.95-5.81-6.14-6.1-6.28-.69-.36-13.83-2.75-1.92-.45-3.87-.84a8.69,8.69,0,0,0-3.67-.15,17.23,17.23,0,0,1,1.15-3.18c-.05.09.53-.6,1.75-2.1a1.59,1.59,0,0,0,.9,1.25,40.06,40.06,0,0,0,6.2,1.44,60.75,60.75,0,0,0,6.52,1.06,23.62,23.62,0,0,0-1.69-2.21c-.59-.67-1.82-2-3.67-4a35.63,35.63,0,0,0-3.63-3.58,2.84,2.84,0,0,0-1.71.22,7.35,7.35,0,0,1,.64-2.43A12.5,12.5,0,0,1,251.89,108.67Z"/></g><g class="cls-2"><path class="cls-3" d="M306.32,52.11a16.67,16.67,0,0,0-.27,2.53q.27,1.36,2.14,8.2a66.87,66.87,0,0,0,2.29,7.55q.34.49,7.56,6.42c4.66,3.85,7.44,6.09,8.34,6.75a5.24,5.24,0,0,0,1.77.76,4.38,4.38,0,0,1,1.28.43,7.81,7.81,0,0,0-1.1.78l-1.07.76a12.5,12.5,0,0,1-3.2,1.79,5.89,5.89,0,0,0-.53-1.67q-.24-.33-5-4.15-4.62-3.69-5.72-4.32l-.07,0a.25.25,0,0,0-.07.25c.19,1,.77,3.31,1.75,6.86a40,40,0,0,0,2,6.29,7.92,7.92,0,0,0,1.38,1.17,5.5,5.5,0,0,1-.57.47c-.29.2-.74.5-1.34.88s-1,.67-1.33.88a2,2,0,0,0,.33-2.12c-.24-1-1.11-4-2.61-9.19q-2.34-8.12-2.53-8.39-.44-.61-11-8.8c-1-.85-2-1.7-3.05-2.53a8.6,8.6,0,0,0-3.2-1.82,19,19,0,0,1,2.49-2.3q-.14.09,2.52-1a1.6,1.6,0,0,0,.22,1.52,42.68,42.68,0,0,0,4.84,4.14,63.78,63.78,0,0,0,5.31,3.94,24.46,24.46,0,0,0-.49-2.74q-.31-1.31-1.43-5.21a36.76,36.76,0,0,0-1.57-4.84q-.25-.36-1.62-.6a7,7,0,0,1,1.69-1.86A10.82,10.82,0,0,1,306.32,52.11Z"/><path class="cls-3" d="M335.86,79.86a6.61,6.61,0,0,1-.94.8q-.46.33-4.67,2.7c0-.42.07-1.09.09-2l-.5-.72c-.28-.38-.71-1-1.3-1.72s-1-1.34-1.3-1.73-.63-1-1.08-1.77-.81-1.4-1.08-1.78L310.81,53.49a8.4,8.4,0,0,0-1.63-1.66c-.85-.69-1.45-.94-1.78-.75a44.67,44.67,0,0,1,3.46-3,5.26,5.26,0,0,1,1.66-.64,7.09,7.09,0,0,1,.12,1.45,2.47,2.47,0,0,0,.39,1.4L331.94,77a9.9,9.9,0,0,0,1.91,2.19A9.64,9.64,0,0,1,335.86,79.86Z"/></g><g class="cls-2"><path class="cls-3" d="M525.21,254.05a6.24,6.24,0,0,1,.5-1.13c.18-.33,1.19-1.82,3-4.46.16.39.43,1,.8,1.84l.77.42c.41.23,1.05.56,1.92,1s1.5.76,1.92,1,1,.6,1.75,1.13a18.77,18.77,0,0,0,1.75,1.12l21.63,11.91a9.06,9.06,0,0,0,2.19.78c1.07.25,1.71.21,1.93-.11a45,45,0,0,1-1.78,4.26,5.72,5.72,0,0,1-1.21,1.3,6.85,6.85,0,0,1-.75-1.25,2.43,2.43,0,0,0-1-1.09L530,255a10.12,10.12,0,0,0-2.67-1.14A9.58,9.58,0,0,1,525.21,254.05Z"/><path class="cls-3" d="M547.89,295.9a5.77,5.77,0,0,0-1.16-1.86c-.43-.42-1.44-1.35-3-2.78s-4-3.53-7.2-6.3q-1.25-1-3.57-3.13a12,12,0,0,0-1.06-1.2,24.14,24.14,0,0,0-2.12-1.86c-1.67-1.36-3.67-3.08-6-5.18q-2.89-2.67-5.81-5.3a4.51,4.51,0,0,1,.52-1.86,6.13,6.13,0,0,1,1.33-1.52c1.51.3,3.31.76,5.42,1.39q2.68.78,5.35,1.59c.88.14,2.17.4,3.88.78l17.45,4.78c.07,0,1,.33,2.91.95a10.47,10.47,0,0,0,2.81.66,1.71,1.71,0,0,0,1-.31c.52-.27.84-.42.94-.46l.72.4v.09a3.41,3.41,0,0,1-.58.71,3.57,3.57,0,0,0-.56.68,11.32,11.32,0,0,0-.64,1.51,11.75,11.75,0,0,1-.63,1.48,1.73,1.73,0,0,1-.82.58c-.7-.69-1.08-1.06-1.14-1.09a7.15,7.15,0,0,0-1.4-.3c-1-.17-1.53-.27-1.64-.3q-5.08-1.31-13.08-3.55-10.72-3-13.11-3.7a14.76,14.76,0,0,0-3.3-.46q-.08.71,3.65,3.78,2.21,1.77,5.55,4.88,4.28,3.9,5.49,5,.35.28,5.1,4.68,4.25,3.93,4.49,4.06a2.82,2.82,0,0,0,2.11,0,10,10,0,0,1-1,2.66,2.46,2.46,0,0,1-.31.44C548.35,295.82,548.18,295.84,547.89,295.9Z"/></g><g class="cls-2"><path class="cls-3" d="M484.11,354.67a5.81,5.81,0,0,0-.12-2.19c-.18-.58-.61-1.88-1.31-3.9s-1.78-5-3.27-9q-.6-1.5-1.62-4.47a13.93,13.93,0,0,0-.35-1.56,24.65,24.65,0,0,0-1-2.66c-.81-2-1.73-4.46-2.77-7.43-.83-2.49-1.68-5-2.53-7.44a4.25,4.25,0,0,1,1.35-1.38,6,6,0,0,1,1.9-.69c1.17,1,2.53,2.26,4.07,3.83,1.32,1.32,2.63,2.64,3.93,4,.7.54,1.71,1.39,3,2.54q4.31,4.2,13,12.6c.06.05.76.79,2.09,2.24a10.69,10.69,0,0,0,2.15,1.93,1.64,1.64,0,0,0,1,.21c.59,0,.94,0,1,0l.44.7,0,.09a3.51,3.51,0,0,1-.85.34,3.44,3.44,0,0,0-.81.32,13,13,0,0,0-1.3,1,11.58,11.58,0,0,1-1.26,1,1.7,1.7,0,0,1-1,.12c-.27-.95-.43-1.45-.47-1.52a7.05,7.05,0,0,0-1.08-.93c-.78-.62-1.21-1-1.29-1.05q-3.82-3.6-9.75-9.41-7.94-7.85-9.7-9.57a15.35,15.35,0,0,0-2.67-2q-.4.58,1.37,5.08c.72,1.75,1.56,4.06,2.51,7q1.88,5.47,2.41,7,.16.42,2.21,6.55,1.85,5.5,2,5.73a2.78,2.78,0,0,0,1.83,1.05,10,10,0,0,1-2.18,1.83,3.57,3.57,0,0,1-.48.24A1.07,1.07,0,0,0,484.11,354.67Z"/></g><g class="cls-2"><path class="cls-3" d="M272.94,244.78a10.12,10.12,0,0,0-2.67,1.14L241.6,261.69a2.42,2.42,0,0,0-1,1.09,7.33,7.33,0,0,1-.75,1.26,5.49,5.49,0,0,1-1.21-1.3,42.36,42.36,0,0,1-1.78-4.26c.21.32.86.35,1.93.11a9.22,9.22,0,0,0,2.19-.78l21.63-11.91c.42-.23,1-.6,1.75-1.12a19.33,19.33,0,0,1,1.75-1.13q.62-.35,1.92-1c.87-.43,1.51-.75,1.92-1l.77-.42c.37-.83.64-1.45.79-1.84q2.74,4,3,4.46a6.66,6.66,0,0,1,.5,1.13A9.58,9.58,0,0,1,272.94,244.78Z"/><path class="cls-3" d="M277,252.06a10.6,10.6,0,0,0-2.67,1.15L245.61,269a2.36,2.36,0,0,0-1,1.09,7.31,7.31,0,0,1-.75,1.25,5.5,5.5,0,0,1-1.21-1.29,44.65,44.65,0,0,1-1.78-4.26c.21.31.86.35,1.93.11a8.56,8.56,0,0,0,2.18-.79l21.64-11.9c.41-.23,1-.6,1.75-1.13a18.77,18.77,0,0,1,1.75-1.12q.61-.34,1.92-1t1.92-1c.29-.15.54-.29.76-.42.38-.83.65-1.44.8-1.84,1.83,2.64,2.83,4.13,3,4.47a6.33,6.33,0,0,1,.5,1.13A9.45,9.45,0,0,1,277,252.06Z"/><path class="cls-3" d="M281,259.35a10.12,10.12,0,0,0-2.67,1.14l-28.68,15.78a2.43,2.43,0,0,0-1,1.09,7.3,7.3,0,0,1-.74,1.25,5.31,5.31,0,0,1-1.21-1.3,40.48,40.48,0,0,1-1.78-4.25c.21.31.86.35,1.93.1a8.21,8.21,0,0,0,2.18-.78l21.64-11.9c.41-.23,1-.61,1.75-1.13s1.33-.9,1.75-1.13,1.05-.55,1.92-1,1.5-.76,1.92-1l.76-.42c.38-.83.64-1.44.8-1.84,1.83,2.64,2.83,4.13,3,4.46a6.14,6.14,0,0,1,.49,1.13A8.91,8.91,0,0,1,281,259.35Z"/><path class="cls-3" d="M259.88,301.39a2.43,2.43,0,0,1-.3-.44,9.71,9.71,0,0,1-1-2.66,2.75,2.75,0,0,0,2.1,0q.24-.13,4.5-4.07,4.75-4.4,5.1-4.67l5.49-5q3.33-3.11,5.54-4.87,3.74-3.09,3.66-3.79a15.46,15.46,0,0,0-3.31.46L268.52,280q-8,2.25-13.07,3.55-.16,0-1.65.3a7.16,7.16,0,0,0-1.39.3,13.93,13.93,0,0,0-1.14,1.09,1.63,1.63,0,0,1-.82-.57,13.23,13.23,0,0,1-.63-1.48,11.35,11.35,0,0,0-.65-1.52,3.16,3.16,0,0,0-.55-.67,3.6,3.6,0,0,1-.58-.71v-.1l.71-.4c.11,0,.42.19,1,.47a1.59,1.59,0,0,0,1,.3,10.44,10.44,0,0,0,2.82-.66c1.86-.62,2.83-.94,2.91-.95l17.45-4.78c1.7-.38,3-.63,3.87-.77q2.67-.82,5.36-1.6,3.17-.94,5.41-1.38a5.75,5.75,0,0,1,1.33,1.51,4.52,4.52,0,0,1,.53,1.86c-1.95,1.76-3.88,3.52-5.82,5.3-2.33,2.1-4.34,3.83-6,5.18a20.2,20.2,0,0,0-2.12,1.87,12.18,12.18,0,0,0-1.06,1.19c-1.55,1.41-2.74,2.46-3.58,3.13q-4.81,4.15-7.19,6.3c-1.59,1.43-2.59,2.36-3,2.79a5.62,5.62,0,0,0-1.17,1.85A1,1,0,0,0,259.88,301.39Z"/></g><g class="cls-2"><path class="cls-3" d="M319.13,307.93a10.29,10.29,0,0,0-1.79,2.29l-17.52,27.64a2.4,2.4,0,0,0-.31,1.42,8,8,0,0,1-.05,1.46,5.34,5.34,0,0,1-1.69-.56,40.8,40.8,0,0,1-3.61-2.87c.34.17.92-.1,1.74-.83a8.73,8.73,0,0,0,1.54-1.75l13.21-20.85a20.27,20.27,0,0,0,1-1.83c.4-.82.73-1.43,1-1.83s.66-1,1.21-1.79,1-1.39,1.21-1.79.33-.53.47-.74c-.07-.91-.14-1.58-.19-2q4.31,2.16,4.79,2.46a6,6,0,0,1,1,.75A9.43,9.43,0,0,1,319.13,307.93Z"/><path class="cls-3" d="M326.15,312.38a10.29,10.29,0,0,0-1.79,2.29l-17.51,27.64a2.42,2.42,0,0,0-.32,1.42,7.14,7.14,0,0,1,0,1.46,5.53,5.53,0,0,1-1.69-.56,40.34,40.34,0,0,1-3.61-2.87c.34.18.92-.1,1.74-.83a8.66,8.66,0,0,0,1.54-1.74l13.22-20.86q.38-.6,1-1.83t1-1.83c.25-.4.66-1,1.21-1.79s.95-1.39,1.2-1.79l.47-.74c-.07-.91-.13-1.57-.19-2q4.32,2.16,4.8,2.46a6.41,6.41,0,0,1,1,.75A8.74,8.74,0,0,1,326.15,312.38Z"/><path class="cls-3" d="M328,359.37a2.32,2.32,0,0,1-.48-.23,10,10,0,0,1-2.18-1.84,2.8,2.8,0,0,0,1.83-1q.13-.24,2-5.73c1.36-4.1,2.1-6.28,2.21-6.56q.54-1.53,2.41-7c.95-2.88,1.79-5.2,2.51-6.94,1.18-3,1.64-4.7,1.37-5.08a15,15,0,0,0-2.67,2q-1.77,1.72-9.7,9.57-5.93,5.82-9.75,9.41c-.08.08-.51.43-1.3,1a6,6,0,0,0-1.07.94c0,.06-.2.56-.48,1.51a1.77,1.77,0,0,1-1-.11,12,12,0,0,1-1.26-1,12.23,12.23,0,0,0-1.3-1,3.3,3.3,0,0,0-.82-.33,3.19,3.19,0,0,1-.84-.34l0-.09.43-.69a9.92,9.92,0,0,1,1.05,0,1.72,1.72,0,0,0,1-.2,10.81,10.81,0,0,0,2.15-1.94c1.33-1.44,2-2.19,2.09-2.23l13-12.6c1.31-1.15,2.32-2,3-2.55q2-2,3.93-4,2.31-2.35,4.07-3.82a6.06,6.06,0,0,1,1.9.68,4.57,4.57,0,0,1,1.35,1.38c-.85,2.47-1.7,5-2.53,7.45q-1.56,4.44-2.77,7.43a23.21,23.21,0,0,0-1,2.66,11.55,11.55,0,0,0-.35,1.55q-1,3-1.62,4.47-2.24,6-3.27,9c-.7,2-1.13,3.31-1.31,3.89a5.81,5.81,0,0,0-.12,2.19A1.07,1.07,0,0,0,328,359.37Z"/></g><g class="cls-2"><path class="cls-3" d="M525.2,138.35a10.12,10.12,0,0,0,2.67-1.14l28.68-15.78a2.43,2.43,0,0,0,1-1.09,7.3,7.3,0,0,1,.74-1.25,5.31,5.31,0,0,1,1.21,1.3,40,40,0,0,1,1.78,4.26c-.21-.32-.86-.36-1.93-.11a9,9,0,0,0-2.18.78l-21.64,11.9c-.41.23-1,.61-1.75,1.13s-1.33.9-1.75,1.13-1,.56-1.92,1-1.5.76-1.92,1l-.76.42c-.38.83-.64,1.45-.8,1.84-1.83-2.64-2.83-4.13-3-4.46a6.14,6.14,0,0,1-.49-1.13A8.91,8.91,0,0,1,525.2,138.35Z"/><path class="cls-3" d="M521.19,131.07a10.63,10.63,0,0,0,2.68-1.15l28.67-15.77a2.48,2.48,0,0,0,1-1.09,6.88,6.88,0,0,1,.74-1.25,5.29,5.29,0,0,1,1.21,1.29,41.55,41.55,0,0,1,1.79,4.26c-.22-.32-.86-.35-1.93-.11a8.91,8.91,0,0,0-2.19.78l-21.64,11.91c-.41.23-1,.6-1.75,1.13s-1.33.89-1.75,1.12-1.05.56-1.92,1l-1.92,1-.76.43c-.38.83-.64,1.44-.8,1.84-1.83-2.65-2.83-4.13-3-4.47a5.86,5.86,0,0,1-.49-1.13A9.26,9.26,0,0,1,521.19,131.07Z"/></g><g class="cls-2"><path class="cls-3" d="M479.73,86a10.3,10.3,0,0,0,1.89-2.22l18.6-26.92a2.41,2.41,0,0,0,.38-1.4,7.07,7.07,0,0,1,.1-1.46,5.82,5.82,0,0,1,1.67.62,44.39,44.39,0,0,1,3.49,3c-.33-.19-.92.06-1.77.76a8.55,8.55,0,0,0-1.61,1.68l-14,20.31c-.27.39-.62,1-1.06,1.79s-.8,1.4-1.06,1.79-.7,1-1.28,1.74-1,1.35-1.28,1.74l-.5.72c0,.91.07,1.58.11,2-2.81-1.54-4.38-2.43-4.69-2.64a6.73,6.73,0,0,1-.95-.79A9.18,9.18,0,0,1,479.73,86Z"/></g><g class="cls-2"><path class="cls-3" d="M394.17,372.47a5.58,5.58,0,0,0,1.07-1.91c.16-.58.49-1.91,1-4s1.18-5.19,2-9.34c.19-1.06.53-2.6,1-4.64a14.71,14.71,0,0,0,.53-1.5,22,22,0,0,0,.61-2.76c.39-2.12.93-4.7,1.64-7.76q.94-3.82,1.85-7.65a4.42,4.42,0,0,1,1.88-.44,6,6,0,0,1,2,.44c.46,1.46.93,3.26,1.39,5.41q.61,2.73,1.19,5.46c.3.84.7,2.1,1.19,3.77q1.4,5.85,4.22,17.59c0,.08.22,1.08.57,3a10.31,10.31,0,0,0,.78,2.78,1.55,1.55,0,0,0,.74.71c.49.33.77.53.86.61v.81l-.09.06a4.07,4.07,0,0,1-.9-.16,3.5,3.5,0,0,0-.86-.17,11.75,11.75,0,0,0-1.64.17,13,13,0,0,1-1.59.16,1.72,1.72,0,0,1-.9-.44c.27-.95.4-1.46.4-1.53a7,7,0,0,0-.4-1.36q-.5-1.43-.54-1.59-1.31-5.07-3.19-13.16-2.5-10.87-3.08-13.28a15.29,15.29,0,0,0-1.18-3.11q-.66.27-1.56,5-.49,2.79-1.6,7.21c-.9,3.76-1.47,6.16-1.72,7.22q-.08.43-1.64,6.72c-.93,3.75-1.39,5.71-1.39,5.9a2.76,2.76,0,0,0,1,1.85A9.63,9.63,0,0,1,395,373a2.2,2.2,0,0,1-.53-.06C394.46,372.84,394.37,372.69,394.17,372.47Z"/><path class="cls-3" d="M384.91,332.43a6.46,6.46,0,0,1,1.23-.11c.39,0,2.18.16,5.37.49q-.4.49-1.23,1.59v.87q0,.71.06,2.16c0,1,.07,1.68.07,2.16a20.6,20.6,0,0,1-.15,2.07c-.09.91-.14,1.6-.14,2.08v24.69a8.52,8.52,0,0,0,.37,2.3c.3,1,.64,1.6,1,1.63a43.8,43.8,0,0,1-4.59.5,5.53,5.53,0,0,1-1.72-.44,7.62,7.62,0,0,1,.74-1.26,2.39,2.39,0,0,0,.49-1.36V337.07a9.92,9.92,0,0,0-.29-2.89A10.13,10.13,0,0,1,384.91,332.43Z"/></g><g class="cls-2"><rect class="cls-3" x="398.13" y="2.49" width="7.92" height="10.97"/></g><g class="cls-2"><path class="cls-3" d="M401.88,394.25A196.18,196.18,0,0,1,325.54,17.41,196.17,196.17,0,0,1,478.22,378.83,194.87,194.87,0,0,1,401.88,394.25ZM230.66,104.16A195.86,195.86,0,0,0,215,141.24a190.85,190.85,0,0,0-4.65,18.53A195.08,195.08,0,0,0,206.64,195c0,1,0,2.07,0,3.1a194.65,194.65,0,1,0,24-94"/></g><g class="cls-2"><path class="cls-3" d="M401.88,383A184.92,184.92,0,0,1,271.12,67.37,184.92,184.92,0,0,1,532.63,328.88,183.71,183.71,0,0,1,401.88,383ZM226.73,141.26q-2.72,8.42-4.63,17.1a184.91,184.91,0,0,0-4.25,36.77c0,1,0,2,0,3q0,6.72.48,13.35a183.56,183.56,0,0,0,7,38.77q2.49,8.52,5.81,16.74a182.19,182.19,0,0,0,20.23,37.08,186.07,186.07,0,0,0,20.42,24.21A184.05,184.05,0,1,0,532,68a184,184,0,0,0-260.29,0,185,185,0,0,0-28.46,36.62m0,0a181.37,181.37,0,0,0-16.54,36.66"/></g><g class="cls-2"><rect class="cls-3" x="206.09" y="194.57" width="11.56" height="7.49"/></g><g class="cls-2"><path class="cls-3" d="M534.12,197.16a7.27,7.27,0,0,1-.12-1.39c0-.44.19-2.46.56-6.08.37.31,1,.77,1.79,1.39h1c.53,0,1.35,0,2.44-.07s1.91-.07,2.44-.07,1.32.06,2.35.17,1.82.16,2.35.16h28a9.69,9.69,0,0,0,2.59-.42c1.2-.34,1.82-.73,1.86-1.16a50,50,0,0,1,.56,5.19,6.11,6.11,0,0,1-.5,2A7.89,7.89,0,0,1,578,196a2.76,2.76,0,0,0-1.55-.56h-37a11.46,11.46,0,0,0-3.28.33A10.65,10.65,0,0,1,534.12,197.16Z"/><path class="cls-3" d="M534.12,206.57a7.2,7.2,0,0,1-.12-1.39c0-.44.19-2.46.56-6.08.37.31,1,.78,1.79,1.39h1c.53,0,1.35,0,2.44-.06s1.91-.07,2.44-.07,1.32,0,2.35.16,1.82.16,2.35.16h28a9.69,9.69,0,0,0,2.59-.42c1.2-.34,1.82-.72,1.86-1.16a49.84,49.84,0,0,1,.56,5.2,6.13,6.13,0,0,1-.5,1.94,7.89,7.89,0,0,1-1.42-.83,2.76,2.76,0,0,0-1.55-.56h-37a11.46,11.46,0,0,0-3.28.33A10.65,10.65,0,0,1,534.12,206.57Z"/><path class="cls-3" d="M534.12,216a7.13,7.13,0,0,1-.12-1.39c0-.43.19-2.46.56-6.07.37.31,1,.77,1.79,1.39h1c.53,0,1.35,0,2.44-.07s1.91-.07,2.44-.07,1.32,0,2.35.16,1.82.16,2.35.16h28a10,10,0,0,0,2.59-.41c1.2-.34,1.82-.73,1.86-1.16a50,50,0,0,1,.56,5.19,6.23,6.23,0,0,1-.5,1.95,7.56,7.56,0,0,1-1.42-.84,2.74,2.74,0,0,0-1.55-.55h-37a11.55,11.55,0,0,0-3.28.32A10.19,10.19,0,0,1,534.12,216Z"/></g></svg>