<!-- Generator: Adobe Illustrator 22.0.1, SVG Export Plug-In  -->
<svg version="1.1"
	 xmlns="http://www.w3.org/2000/svg" xmlns:xlink="http://www.w3.org/1999/xlink" xmlns:a="http://ns.adobe.com/AdobeSVGViewerExtensions/3.0/"
	 x="0px" y="0px" width="407.7px" height="414.5px" viewBox="0 0 407.7 414.5" style="enable-background:new 0 0 407.7 414.5;"
	 xml:space="preserve">
<style type="text/css">
	.st0{opacity:0.6;fill:#C7B299;}
</style>
<defs>
</defs>
<path class="st0" d="M386,300.4c0,0,2.1-8,0.9-14.6c-1.2-6.6-7.8-2.7-7.8-2.7c-4.7-3.9-8.3,0.9-18.6,2.2
	c-10.3,1.3-23.5,11.5-23.5,11.5s-12.9-8.1-19.5-15.7c-6.6-7.6-20-15.6-20-15.6s-1.1-11.9-3.7-26.7c-2.7-14.9-0.5-56.5-0.5-56.5
	s3-23.5-22.7-33.6c-25.7-10.1-43.1-8.2-47-28.7v-10.8c0,0,6.8,0.7,8-17.2c0,0,3.6,1.6,4.3-2.1c0.7-3.7,8.9-20-1.9-17.5
	c0,0,8.1-32.4-17.2-40.5c3.4-3.4,5.6-8,5.6-13.2c0-10.3-8.3-18.6-18.6-18.6c-10.3,0-18.6,8.3-18.6,18.6c0,5.2,2.1,9.8,5.5,13.2
	c-25.3,8.1-17.2,40.5-17.2,40.5c-10.8-2.5-2.8,13.8-2.1,17.5c0.7,3.7,5,2.1,5,2.1c1.2,17.9,8.4,17.2,8.4,17.2v10.8
	c-3.9,20.5-21.6,18.6-47.3,28.7c-25.7,10.1-22.5,33.6-22.5,33.6s1.8,41.6-0.8,56.5c-2.7,14.9-3.9,26.7-3.9,26.7s-13.5,8-20.1,15.6
	c-6.5,7.6-19.5,15.7-19.5,15.7s-13.2-10.2-23.5-11.5c-10.3-1.3-13.9-6-18.6-2.2c0,0-6.6-4-7.8,2.7c-1.2,6.6,0.9,14.6,0.9,14.6
	s-21-7.5-21.7-0.6c-0.7,6.9,27.7,11.3,27.7,11.3s14.9,4.4,29.8,3.1c-4.3,2.6-6.5,5.4-6.5,5.4s-8.8,18.6,2.1,40.4
	c11,21.8,51.3,31,51.3,31s-6.7,5.5-4.8,10c1.9,4.5,6,2,6,2c-2.8,8.5,6.4,14.7,8.5,9.9c2.1-4.8,9-3.2,21.2-7.4
	c12.2-4.3,28.7-2.7,43-7.4c14.3-4.8,25.4-3.2,25.4-3.2s11-1.6,25.4,3.2c14.3,4.8,30.8,3.2,43,7.4c12.2,4.2,19.1,2.7,21.2,7.4
	c2.1,4.8,11.3-1.4,8.5-9.9c0,0,4.1,2.5,6-2c1.9-4.5-4.8-10-4.8-10s40.4-9.2,51.3-31c11-21.8,2.1-40.4,2.1-40.4s-2.2-2.8-6.5-5.4
	c14.9,1.3,29.8-3.1,29.8-3.1s28.5-4.4,27.8-11.3C407,292.9,386,300.4,386,300.4z M37.7,300.5c0,0-15.6,0.1-8.2-15.1
	c0,0,4.7,5.3,12.6,6.1C42,291.5,42.9,299.3,37.7,300.5z M136.7,320.8c-2.3,8.7-14.9,8.7-42.8-6c-7.7-4.1-14.5-5.9-20.2-5.9l0,0
	c25.7,0,53.6-17.3,57.9-22.8c4.2-5.5,10.8-71,10.8-71c8.8,27.3,10.1,70.9,10.1,70.9C142.7,299.7,139,312.2,136.7,320.8z
	 M313.8,314.8c-28,14.7-40.5,14.5-42.8,5.8c-2.3-8.7-6-21-15.7-34.6c0,0,1.2-43.5,10.1-70.8c0,0,6.5,65.3,10.8,70.8
	c4.3,5.5,32.2,22.8,57.9,22.8c0,0,0,0,0,0C328.3,308.9,321.6,310.7,313.8,314.8z M370,300.5c-5.2-1.2-4.4-9-4.4-9
	c7.9-0.8,12.6-6.1,12.6-6.1C385.6,300.6,370,300.5,370,300.5z"/>
</svg>
